<svg width="226" height="75" viewBox="0 0 226 75" fill="none" xmlns="http://www.w3.org/2000/svg">
<path d="M85.8744 42.937C85.8744 55.0557 80.853 66.0032 72.7779 73.81H13.0955C5.02039 66.0032 0 55.056 0 42.937C0 19.2233 19.2228 0 42.936 0C66.6501 0 85.8744 19.2233 85.8744 42.937Z" fill="black"/>
<path fill-rule="evenodd" clip-rule="evenodd" d="M14.4635 72.1554H66.285C73.2498 65.394 77.5793 55.9338 77.5793 45.4603C77.5793 24.9134 60.9222 8.25586 40.3739 8.25586C19.827 8.25586 3.16992 24.9134 3.16992 45.4603C3.16992 55.9338 7.4984 65.394 14.4637 72.1554H14.4635Z" fill="url(#paint0_linear_6108_29686)"/>
<path d="M67.3718 71.6191H13.5C14.2655 72.3135 15.0648 72.9776 15.8939 73.6105H64.9769C65.8071 72.9778 66.6058 72.3135 67.3718 71.6191Z" fill="black"/>
<path d="M60.3627 38.1353C60.3627 38.1353 61.1129 42.9871 54.9861 41.0853C54.914 41.0639 52.6623 40.6627 51.7358 39.5117C51.7358 39.5117 47.5829 33.0191 42.9582 32.7582C42.8831 32.7542 41.1142 32.6841 39.5579 32.6841C39.4828 32.6841 35.6814 32.3837 34.1808 30.4344C34.1161 30.3502 31.2317 26.5569 28.3547 27.3332C28.2831 27.353 25.8539 27.0061 21.3291 33.2353C21.2847 33.2953 19.0527 35.8593 16.6269 34.4353C16.5625 34.3965 14.7257 33.7604 12.7023 36.2336C12.6539 36.2916 9.57375 39.3621 8.00058 40.5601C8.00058 40.5601 6.35041 43.3613 7.40025 49.2639C7.41309 49.337 7.84951 51.4641 7.32521 53.0387C7.30126 53.1103 8.14943 54.8649 8.29976 55.1646C8.33259 55.2317 9.22544 54.7153 8.75001 52.7395C8.75001 52.7395 8.44936 51.6146 8.85147 49.1886C8.85147 49.1886 8.67497 46.3607 8.29976 45.3116C8.29976 45.3116 8.92651 44.0372 9.22544 46.6881C9.23828 46.7935 9.60016 51.6889 10.2002 53.114C10.2299 53.1831 11.3256 57.264 10.575 62.2664C10.551 62.4325 10.4264 64.468 9.60016 65.8913C9.56387 65.957 9.07733 66.8933 10.1267 67.4183C10.1938 67.4517 13.3014 71.8954 13.3014 72.7202L15.2782 72.9458C15.2782 72.9458 14.8015 71.5684 13.9758 70.4445C13.9758 70.4445 13.7521 69.1426 14.9032 70.893C14.9444 70.9562 15.8025 72.1684 16.0276 73.0198C16.054 73.1223 18.0029 73.2449 18.0029 73.2449C18.0029 73.2449 16.1021 70.3689 15.6519 67.8674C15.639 67.7948 15.9794 66.2668 15.2034 65.217C15.2034 65.217 14.8012 64.9173 15.9525 56.8898C15.9619 56.8152 17.227 54.8651 17.4526 53.5635C17.464 53.4904 16.778 51.5394 18.0779 50.2382C18.0779 50.2382 20.6547 49.1622 21.0295 50.6134C21.0295 50.6134 23.5034 53.4895 29.8548 53.9392C29.8548 53.9392 33.282 54.4159 36.907 53.4139C36.907 53.4139 38.1814 53.7141 39.6331 53.7896C39.6331 53.7896 38.8563 61.7421 37.7319 64.2431C37.7319 64.2431 36.7571 65.5922 37.3577 67.7183C37.3856 67.8202 37.9571 68.2705 36.0817 71.971C36.0484 72.0381 38.1069 72.4207 38.1069 72.4207C38.1069 72.4207 37.5811 72.5429 39.4828 68.6178C39.5166 68.5501 40.8328 67.1937 40.6827 64.5428C40.6773 64.4364 40.8812 62.2175 41.582 60.7668C41.582 60.7668 41.8076 59.6155 41.7326 62.1913C41.7326 62.1913 40.9814 65.7413 41.4329 67.6435C41.4564 67.7464 42.1342 68.8703 41.3584 72.5703C41.3354 72.6742 43.4842 73.0946 43.4842 73.0946C43.4842 73.0946 42.6583 71.343 43.7093 67.6435C43.7491 67.4988 45.0574 66.2666 44.3823 63.3155C44.3823 63.3155 44.6819 58.7908 46.2099 54.1636C46.2099 54.1636 46.5841 53.5633 46.8843 52.7395C46.8843 52.7395 48.9351 51.6887 49.3851 50.7628C49.4179 50.6956 49.5352 49.4888 52.4848 49.7124C52.4848 49.7124 60.7389 50.2377 64.2143 45.6375C64.2143 45.6375 67.5381 43.3615 67.2389 36.0094C67.2389 36.0094 68.4383 33.6101 70.8638 32.6076C70.8638 32.6076 73.6648 34.5093 73.6648 31.0339C73.6648 30.9594 73.2896 28.5326 70.2645 28.2335C70.189 28.227 68.0819 28.2897 67.4635 28.9086C67.3885 28.9831 65.7119 29.507 64.8141 28.4588C64.764 28.4018 63.9141 28.0081 62.9864 28.5329C62.9213 28.5702 60.8872 27.7096 60.8872 28.9086C60.8872 28.9831 61.1874 30.7353 60.6631 33.2356C60.6468 33.3091 60.4385 35.9346 60.4385 37.236C60.4385 37.311 60.3624 38.1355 60.3624 38.1355L60.3627 38.1353Z" fill="black"/>
<path fill-rule="evenodd" clip-rule="evenodd" d="M95.0879 30.9513V42.9627V46.3571H106.314L106.444 46.0954L106.575 45.7044L106.705 45.3132L106.834 45.0518L106.966 44.5294L107.096 44.1372L107.225 43.8773L107.357 43.3549V43.0933H104.355L99.6568 43.2241V39.8287V35.2603L99.7871 28.472V27.6875H95.0879V30.9513Z" fill="black"/>
<path fill-rule="evenodd" clip-rule="evenodd" d="M109.057 29.5132V44.3962V46.3551H120.151L120.283 46.2243L120.412 45.8331L120.541 45.3112L120.673 45.0498L120.803 44.6576L120.934 44.2661L121.065 43.8753L121.196 43.6144V43.0913H120.02L113.626 43.2221V39.6969V38.3911H116.366L119.759 38.5214H120.151L120.283 38.3911V35.2583L120.151 35.1275H118.062L113.48 35.2569L113.626 34.0831V30.8141L119.759 30.9494H120.412V27.6855H109.057V29.5132Z" fill="black"/>
<path fill-rule="evenodd" clip-rule="evenodd" d="M207.338 27.947L207.468 28.2079L207.597 28.3397L207.728 28.5996L207.858 28.7295L207.988 28.9909L208.12 29.1215L208.249 29.2523L208.381 29.5132L208.51 29.6436L208.643 29.9059L208.772 30.1664L208.902 30.2972L209.034 30.4283L209.163 30.6877L209.294 30.8185L209.425 30.9494L209.555 31.2118L209.686 31.4712L209.816 31.6028L209.945 31.8644L210.078 31.994L210.208 32.2554L210.339 32.3848L210.469 32.5161L210.599 32.7775L210.731 32.9081L210.859 33.169L210.991 33.2994L211.122 33.5613L211.252 33.6921L211.383 33.9525L211.513 34.0831L211.645 34.3445L211.774 34.6052L211.904 34.7358L212.036 34.9969L212.166 35.1275L212.296 35.3889L212.427 35.5193L212.557 35.7807L212.688 35.912L212.818 36.1724L212.95 36.302L213.08 36.5634L213.209 36.8243L213.341 36.9547L213.471 37.2161L213.6 37.3469L213.732 37.6083L213.862 37.8693L213.994 37.9991L214.124 38.2605L214.255 38.3911V41.0022L214.124 44.7884V46.3551H218.821V44.1352V38.2605L218.954 37.9991L219.083 37.8693L219.213 37.6083L219.342 37.4777L219.475 37.3469L219.606 37.086L219.736 36.9547L219.866 36.6943L219.997 36.5634L220.128 36.302L220.258 36.1724L220.387 35.912L220.519 35.7807L220.649 35.5193L220.781 35.3889L220.91 35.2583L221.041 34.9969L221.172 34.8666L221.303 34.6052L221.433 34.4744L221.563 34.2134L221.695 34.0831L221.824 33.8217L221.954 33.6921L222.086 33.4302L222.215 33.2994L222.347 33.169L222.477 32.9081L222.607 32.7775L222.738 32.5161L222.868 32.3848L223 32.1249L223.129 31.994L223.26 31.8644L223.391 31.6028L223.521 31.4712L223.651 31.2118L223.782 31.08L223.912 30.9494L224.043 30.6877L224.173 30.5571L224.304 30.2972L224.435 30.1664L224.564 29.9059L224.695 29.7751L224.825 29.6436L224.957 29.3829L225.088 29.2523L225.218 28.9909L225.349 28.8601L225.479 28.7295L225.609 28.5996L225.74 28.3397L225.87 28.2079L226 27.947V27.6855H220.91L220.781 27.947L220.649 28.0778L220.519 28.47L220.387 28.5996L220.258 28.8601L220.128 28.9909L219.997 29.3829L219.866 29.5132L219.736 29.7751L219.606 30.0365L219.475 30.2972L219.342 30.5571L219.213 30.6877L219.083 30.9494L218.954 31.2118L218.821 31.4712L218.692 31.7336L218.561 31.994L218.431 32.1249L218.301 32.3848L218.169 32.6467L218.04 32.9081L217.908 33.169L217.779 33.4302L217.648 33.5613L217.517 33.9525L217.387 34.0831L217.255 34.4744L217.126 34.6052L216.996 34.8666V35.1275H216.733V34.8666L216.603 34.6052L216.473 34.3445L216.342 34.0831L216.211 33.9525L216.082 33.5613L215.952 33.4302L215.821 33.169L215.69 32.9081L215.559 32.6467L215.43 32.3848L215.298 32.1249L215.167 31.994L215.037 31.7336L214.907 31.4712L214.777 31.2118L214.645 30.9494L214.515 30.6877L214.385 30.5571L214.255 30.2972L214.124 30.0365L213.994 29.7751L213.862 29.6436L213.732 29.3829L213.6 29.1215L213.471 28.8601L213.341 28.5996L213.209 28.47L213.08 28.2079L212.95 27.947L212.818 27.6855H207.338V27.947Z" fill="black"/>
<path fill-rule="evenodd" clip-rule="evenodd" d="M156.172 38.9169L156.041 39.4397L155.911 39.8305L155.781 40.0924L155.65 40.3533L155.52 40.4841L155.388 40.7445L155.258 40.8764L155.127 41.0062L154.997 41.2676L154.867 41.3984L154.735 41.5288L154.476 41.6591L154.344 41.7899L154.215 41.9208L154.083 42.0521L153.823 42.1812L153.561 42.3125L153.301 42.4433L153.038 42.5732L152.78 42.7043L152.257 42.8346L151.865 42.9654L150.951 43.0962L147.949 43.2271V42.4438V31.4761V30.8156L150.689 30.9543L151.865 31.0851L152.518 31.2167L152.78 31.3465L153.169 31.4764L153.43 31.608L153.692 31.7388L153.954 31.8696L154.215 31.9992L154.344 32.13L154.606 32.2609L154.735 32.3902L154.867 32.5213L154.997 32.6521L155.127 32.783L155.259 33.0444L155.389 33.1747L155.52 33.4356L155.65 33.5667L155.781 33.8271L155.911 34.0885L156.041 34.4798L156.172 34.872L156.303 35.3944V38.3965L156.172 38.9186L156.172 38.9169ZM143.252 28.2116L143.381 30.8222V43.0953L143.252 45.837V46.3591H151.604L152.648 46.2283L153.301 46.0974L153.954 45.9671L154.345 45.8368L154.735 45.7059L155.127 45.5756L155.52 45.4448L155.65 45.3144L156.041 45.1834L156.303 45.053L156.564 44.9222L156.826 44.7914L156.955 44.6605L157.216 44.5302L157.346 44.3991L157.609 44.2688L157.738 44.138L157.869 44.0071L157.999 43.8778L158.261 43.7474L158.391 43.6166V43.3552H158.652V43.0938H158.914L159.044 42.8324L159.175 42.702L159.305 42.571L159.436 42.3105L159.567 42.1792L159.696 42.0501L159.828 41.7882L159.957 41.5273L160.09 41.397L160.219 41.0047L160.348 40.8749L160.48 40.4826L160.611 40.0909L160.74 39.829L160.872 39.1778L161.002 38.7856L161.133 37.7411V34.9989L161.002 34.2154L160.872 33.6941L160.74 33.171L160.611 32.9101L160.48 32.5178L160.348 32.2574L160.219 31.996L160.09 31.7356L159.957 31.6047L159.828 31.3433L159.696 31.2135L159.567 31.0819L159.436 30.9511L159.305 30.8203L159.175 30.5589L159.044 30.43L158.914 30.2989L158.782 30.1681L158.652 30.0383L158.391 29.9074L158.261 29.7766L158.132 29.6448L157.868 29.5144L157.738 29.3841L157.478 29.2533L157.346 29.1224L157.086 28.9916L156.826 28.8608L156.564 28.73L156.172 28.6001L155.911 28.4703L155.389 28.3399L154.997 28.2081L154.476 28.0778L153.954 27.947L153.038 27.8154L151.343 27.6855H143.252V28.2079L143.252 28.2116Z" fill="black"/>
<path fill-rule="evenodd" clip-rule="evenodd" d="M129.157 38.5192L129.288 38.2583L129.418 37.867L129.55 37.4753L129.68 37.2139L129.81 36.8221L129.941 36.4304L130.071 36.0391L130.203 35.7782L130.333 35.3865L130.464 35.125L130.594 34.7333L130.724 34.342L130.854 33.9498L130.985 33.5586L131.115 33.2966L131.246 32.9054L131.376 32.5131L131.507 32.2527L131.638 32.644L131.768 33.0362L131.899 33.4275L132.029 33.6894L132.16 34.2107L132.29 34.4716L132.42 34.9942L132.551 35.2556L132.682 35.7782L132.813 36.17L132.943 36.4304L133.074 36.9522L133.205 37.2136L133.334 37.6059L133.465 37.9966L133.596 38.3889L133.726 38.7811L129.008 38.7742L129.158 38.5192H129.157ZM129.81 27.6833L129.68 27.9447L129.55 28.3375L129.418 28.5974L129.288 28.9887L129.157 29.2501L129.027 29.6413L128.897 29.9037L128.766 30.295L128.636 30.5549L128.505 30.8163L128.374 31.2095L128.243 31.469L128.112 31.8622L127.982 32.1226L127.851 32.3826L127.722 32.6445L127.591 33.0367L127.461 33.2971L127.33 33.6899L127.201 34.0811L127.068 34.2115L126.938 34.6032L126.807 34.8646L126.677 35.2564L126.548 35.5173L126.416 35.7787L126.286 36.1704L126.154 36.4309L126.025 36.8226L125.894 36.953L125.763 37.3452L125.633 37.6066L125.501 37.9974L125.372 38.2588L125.242 38.5197L125.111 38.9114L124.981 39.1738L124.85 39.4343L124.719 39.6952L124.588 40.0869L124.458 40.3479L124.328 40.6093L124.196 41.0005L124.066 41.2619L123.936 41.5228L123.803 41.7838L123.674 42.175L123.544 42.4369L123.414 42.6978L123.283 43.0896L123.153 43.2204L123.021 43.6127L122.891 43.8736L122.76 44.1335L122.63 44.3944L122.498 44.7867L122.369 45.0481L122.239 45.3095L122.107 45.5704L121.977 45.8313L121.846 46.2226V46.3534H126.153L126.285 46.2226L126.414 45.8313L126.546 45.5704L126.676 45.1782L126.806 44.7864L126.937 44.5255L127.067 44.1333L127.199 43.8733L127.329 43.4806L127.459 43.2202L127.59 42.8279L127.721 42.4367L127.849 42.1748V41.9099L134.768 42.0457L134.9 42.4369L135.029 42.8282L135.159 43.2204L135.29 43.6127L135.42 44.0029L135.552 44.2643L135.682 44.7869L135.814 45.1787L135.944 45.4401L136.073 45.8318L136.205 46.0923L136.334 46.3537H141.556V45.9619L141.425 45.8316L141.295 45.4398L141.165 45.1784L141.033 44.7867L140.903 44.5258L140.771 44.2643L140.642 43.8736L140.511 43.6127L140.38 43.3513L140.251 43.0898L140.119 42.6981L139.99 42.4372L139.858 42.1753L139.728 41.784L139.598 41.5231L139.466 41.1313L139.337 40.8709L139.206 40.4787L139.075 40.2178L138.944 39.9563L138.814 39.5651L138.683 39.3037L138.553 38.9114L138.422 38.65L138.291 38.2588L138.162 37.9974L138.031 37.6066L137.9 37.4758L137.77 37.084L137.639 36.6923L137.509 36.4309L137.377 36.0396L137.247 35.7787L137.116 35.3869L136.986 35.1255L136.856 34.7338L136.724 34.3425L136.594 34.0811L136.463 33.6899L136.333 33.428L136.203 33.0367L136.072 32.7753L135.942 32.3826L135.812 31.9918L135.681 31.6005L135.551 31.2093L135.419 30.9469L135.289 30.5547L135.157 30.2947L135.028 29.9035L134.898 29.6411L134.766 29.1192L134.637 28.727L134.507 28.4676L134.375 28.0753L134.244 27.6831L134.114 27.5527H129.938L129.807 27.6831L129.81 27.6833Z" fill="black"/>
<path fill-rule="evenodd" clip-rule="evenodd" d="M162.439 27.947L162.57 28.2079L162.7 28.5996L162.831 28.86L162.961 29.2523L163.092 29.6435L163.224 30.0365L163.353 30.2972L163.482 30.6877L163.614 31.08L163.746 31.3414L163.876 31.7336L164.005 31.994L164.137 32.5161L164.267 32.7775L164.396 33.169L164.528 33.5613L164.657 33.9525L164.787 34.3445L164.919 34.6052L165.05 34.9969L165.181 35.3889L165.311 35.7807L165.441 36.1724L165.572 36.5634L165.701 36.9547L165.833 37.2161L165.963 37.7392L166.094 37.9991L166.224 38.3911L166.354 38.7833L166.487 39.1756L166.615 39.5668L166.746 39.9581L166.878 40.3496L167.007 40.7408L167.139 41.1331L167.268 41.3945L167.399 41.9163L167.529 42.3081L167.66 42.6998L167.792 43.0913L167.921 43.353L168.051 43.8753L168.183 44.1352L168.312 44.6576L168.444 45.0498L168.574 45.4415L168.704 45.833L168.835 46.2243L168.965 46.4857H173.273L173.403 46.2243L173.534 45.833L173.664 45.4415L173.795 44.9192L173.926 44.6576L174.055 44.1352L174.187 43.8753L174.316 43.353L174.448 43.0913L174.578 42.5685L174.708 42.3081L174.839 41.7855L174.969 41.3945L175.101 41.1331L175.231 40.611L175.359 40.3496L175.491 39.9581L175.622 39.5668L175.753 39.1756L175.884 38.7833L176.014 38.3911L176.144 37.9991L176.274 37.7392V37.2161H176.537V37.4777L176.666 37.9991L176.796 38.3911L176.927 38.6518L177.057 39.1756L177.189 39.436L177.318 39.8267L177.449 40.2195L177.58 40.611L177.71 41.0022L177.842 41.3945L177.972 41.7855L178.103 42.1767L178.233 42.5685L178.362 42.9607L178.493 43.353L178.624 43.745L178.755 44.1352L178.885 44.6576L179.015 44.9192L179.147 45.4415L179.277 45.7025L179.408 46.2243L179.538 46.4857H184.236L184.365 46.0935L184.498 45.7025L184.627 45.4415L184.759 44.9192L184.889 44.6576L185.02 44.1352L185.152 43.745L185.279 43.353L185.411 42.9607L185.541 42.6998L185.672 42.1767L185.802 41.9163L185.932 41.5246L186.064 41.1331L186.195 40.7408L186.325 40.3496L186.456 39.9581L186.586 39.5668L186.716 39.3052L186.848 38.7833L186.977 38.5214L187.107 38.1302L187.238 37.7392L187.369 37.3469L187.5 36.9547L187.63 36.6943L187.761 36.1724L187.891 35.912L188.021 35.5193L188.151 35.1275L188.282 34.8666L188.414 34.3445L188.544 34.0831L188.674 33.6921L188.805 33.4302L188.934 32.9081L189.064 32.6467L189.196 32.2554L189.327 31.8644L189.458 31.6028L189.587 31.08L189.719 30.8185L189.848 30.4283L189.978 30.1664L190.109 29.7751L190.24 29.3829L190.371 28.9909L190.502 28.5996L190.632 28.3397L190.763 27.947V27.6855H186.325L186.195 27.8154L186.064 28.2079L185.932 28.7295L185.802 29.1215L185.672 29.5132L185.541 30.0365L185.411 30.2972L185.279 30.8185L185.152 31.2118L185.02 31.7336L184.889 32.1249L184.759 32.5161L184.627 33.0389L184.498 33.4302L184.365 33.9525L184.236 34.3445L184.106 34.7358L183.975 35.1275L183.845 35.6493L183.715 36.1724L183.583 36.5634L183.454 37.086L183.322 37.3469L183.193 37.8693L183.062 38.2605L182.931 38.7833L182.8 39.3052L182.669 39.6969L182.539 40.2195L182.409 40.611V41.1331H182.149V40.7408L182.019 40.2195L181.887 39.8267L181.756 39.436L181.624 38.9132L181.495 38.5214L181.365 37.9991L181.234 37.7392L181.104 37.2161L180.973 36.8243L180.843 36.302L180.711 35.912L180.581 35.5193L180.451 34.9969L180.32 34.7358L180.191 34.2134L180.06 33.9525L179.929 33.4302L179.799 32.9081L179.667 32.6467L179.538 32.1249L179.408 31.7336L179.277 31.3414L179.147 30.9494L179.015 30.5571L178.885 30.1664L178.755 29.7751L178.624 29.2523L178.493 28.9909L178.362 28.47L178.233 28.2079L178.103 27.6855H173.011V27.947L173.142 28.3397L173.273 28.5996L173.403 28.9909L173.534 29.2523L173.664 29.7751L173.795 30.1664L173.926 30.4283L174.055 30.8185L174.187 31.2118L174.316 31.6028L174.448 31.8644L174.578 32.3848V33.0389L174.448 33.5613L174.316 33.8217L174.187 34.2134L174.055 34.4744L173.926 34.9969L173.795 35.2583L173.664 35.6493L173.534 36.0416L173.403 36.4328L173.273 36.8243L173.142 37.086L173.011 37.6083L172.882 37.8693L172.751 38.3911L172.62 38.6518L172.491 39.1756L172.359 39.5668L172.228 39.8267L172.097 40.3496L171.968 40.7408V41.1331H171.706V40.7408L171.576 40.2195L171.446 39.6969L171.315 39.3052L171.184 38.7833L171.052 38.3911L170.923 37.9991L170.794 37.6083L170.662 37.086L170.532 36.5634L170.401 36.1724L170.27 35.6493L170.138 35.3889L170.009 34.8666L169.879 34.4744L169.748 33.9525L169.618 33.5613L169.488 33.169L169.357 32.6467L169.227 32.3848L169.095 31.8644L168.965 31.4712L168.835 31.08L168.704 30.6877L168.574 30.1664L168.444 29.7751L168.312 29.3829L168.183 28.9909L168.051 28.5996L167.921 28.2079L167.792 27.8154L167.66 27.6855H162.439V27.947Z" fill="black"/>
<path fill-rule="evenodd" clip-rule="evenodd" d="M196.631 38.6493L196.762 38.258L196.892 37.9966L197.023 37.6059L197.154 37.3444L197.284 36.9522L197.415 36.5609L197.545 36.2995L197.677 35.9093L197.807 35.6469L197.937 35.2556L198.068 34.8639L198.198 34.4716L198.328 34.2107L198.46 33.819L198.589 33.4272L198.721 33.036L198.851 32.6437L198.981 32.3818L199.113 31.9911V32.5131L199.242 32.9054L199.373 33.1663L199.503 33.6894L199.634 33.9498L199.765 34.4716L199.895 34.733L200.026 35.1248L200.157 35.5165L200.288 35.9093L200.417 36.2995L200.548 36.6918L200.679 37.0835L200.809 37.4753L200.94 37.867L201.071 38.2583L201.201 38.6495H196.633L196.631 38.6493ZM197.284 27.8129L197.154 28.2056L197.023 28.4676L196.892 28.8578L196.762 29.1192L196.63 29.3806L196.501 29.6411L196.37 30.0343L196.239 30.2947L196.11 30.6855L195.978 31.0777L195.848 31.3391L195.717 31.7314L195.586 31.8622L195.456 32.2535L195.325 32.5139L195.196 32.9061L195.065 33.167L194.934 33.428L194.803 33.8197L194.673 34.0811L194.542 34.4724L194.412 34.7338L194.281 34.9947L194.15 35.2561L194.019 35.6474L193.889 36.0396L193.759 36.1704L193.628 36.5617L193.498 36.8226L193.368 37.2144L193.236 37.4758L193.107 37.7372L192.975 38.1284L192.845 38.3894L192.715 38.65L192.584 38.9114L192.455 39.3037L192.323 39.5651L192.192 39.825L192.062 40.2178L191.931 40.4787L191.801 40.7391L191.67 41.0005L191.539 41.3928L191.409 41.6532L191.278 41.9146L191.149 42.175L191.016 42.5668L190.886 42.8282L190.757 43.0896L190.626 43.4808L190.495 43.6127L190.365 44.0029L190.234 44.2643L190.103 44.5257L189.972 44.9175L189.842 45.1784L189.713 45.4398L189.581 45.7007L189.451 46.092V46.3534H193.758L193.888 46.092L194.018 45.7007L194.149 45.4398L194.28 45.0481L194.411 44.6558L194.541 44.3944L194.673 44.0027L194.802 43.6124L194.933 43.351L195.064 42.9588L195.195 42.5665L195.324 42.1748C195.548 41.625 198.084 41.9143 198.849 41.9143C199.614 41.9143 202.151 41.625 202.374 42.1748L202.504 42.6978L202.633 43.0896L202.765 43.4808L202.894 43.7432L203.027 44.2641L203.156 44.5255L203.288 44.9172L203.418 45.3095L203.547 45.7007L203.678 46.092L203.809 46.3534H209.16V46.092L209.03 45.9617L208.899 45.5704L208.769 45.3095L208.639 45.0481L208.507 44.6558L208.377 44.3944L208.245 44.1335L208.116 43.8736L207.984 43.4808L207.854 43.2204L207.724 42.8282L207.593 42.5668L207.464 42.3063L207.334 41.9146L207.202 41.6532L207.072 41.2619L206.941 41.1311L206.811 40.7388L206.679 40.4784L206.549 40.0867L206.419 39.6949L206.288 39.434L206.158 39.1736L206.027 38.9112L205.896 38.5194L205.767 38.2585L205.635 37.8673L205.504 37.4755L205.374 37.2141L205.244 36.8224L205.112 36.5614L204.982 36.1702L204.851 35.9098L204.721 35.517L204.589 35.2561L204.46 34.8644L204.329 34.603L204.198 34.2112L204.068 33.8195L203.937 33.559L203.807 33.1668L203.677 32.9059L203.545 32.5136L203.416 32.1224L203.286 31.862L203.155 31.4687L203.025 31.2093L202.893 30.8161L202.763 30.5546L202.631 30.0343L202.502 29.7729L202.372 29.3806L202.24 28.9884L202.111 28.727L201.98 28.2054L201.849 27.9445L201.719 27.5527H197.412L197.281 27.8127L197.284 27.8129Z" fill="black"/>
<path d="M106.254 61.9817H99.906V54.59C99.906 54.2514 99.7369 54.082 99.398 54.082H95.8713C95.5329 54.082 95.3633 54.2516 95.3633 54.59V73.7467C95.3633 74.0851 95.5329 74.2547 95.8713 74.2547H99.398C99.7369 74.2547 99.906 74.0851 99.906 73.7467V66.1855H106.254V73.7467C106.254 74.0851 106.423 74.2547 106.762 74.2547H110.288C110.627 74.2547 110.796 74.0851 110.796 73.7467V54.59C110.796 54.2514 110.627 54.082 110.288 54.082H106.762C106.423 54.082 106.254 54.2516 106.254 54.59V61.9817ZM126.85 65.1981C126.85 60.9377 124.029 59.1886 120.558 59.1886C116.976 59.1886 114.013 60.9938 114.013 65.1981V68.7524C114.013 72.6741 116.976 74.6213 120.643 74.6213C123.125 74.6213 124.96 73.8592 126.398 72.7588C126.652 72.5613 126.652 72.3076 126.483 72.0536L125.015 70.1072C124.846 69.8531 124.621 69.7971 124.367 69.9943C123.351 70.5868 122.194 71.0099 120.783 71.0099C119.288 71.0099 118.357 70.2762 118.357 68.8376V68.3864H126.341C126.68 68.3864 126.849 68.2168 126.849 67.9067V65.1983L126.85 65.1981ZM122.703 65.0001V65.5925H118.357V65.0001C118.357 63.4487 119.232 62.7713 120.53 62.7713C121.8 62.7713 122.703 63.4766 122.703 65.0001H122.703ZM130.799 60.5425C130.603 60.6837 130.405 60.9938 130.405 61.3046L130.432 63.5612C130.574 63.8436 130.856 63.872 131.11 63.7308C131.928 63.2796 133.395 62.9409 134.637 62.9409C136.471 62.9409 137.006 63.7592 137.006 65.2544V65.5368C136.301 65.4521 135.482 65.3672 134.608 65.3672C130.772 65.3672 128.458 66.8344 128.458 69.7685C128.458 73.0972 131.025 74.6213 135.088 74.6213C137.006 74.6213 139.236 74.3107 140.9 73.8027C141.182 73.718 141.323 73.5208 141.323 73.2387V65.5084C141.323 61.2201 139.038 59.1888 135.145 59.1888C132.719 59.1888 132.126 59.6963 130.799 60.5428V60.5425ZM132.831 69.6557C132.831 68.7525 133.508 68.2449 135.06 68.2449C135.68 68.2449 136.442 68.3012 137.006 68.414V70.8968C136.499 71.0096 135.737 71.1224 135.088 71.1224C133.734 71.1224 132.831 70.6428 132.831 69.6554V69.6557ZM151.254 74.4519C151.452 74.4235 151.564 74.1979 151.564 73.9439V71.1227C151.564 70.7843 151.367 70.6152 151.029 70.6431C150.746 70.6714 150.436 70.6714 150.154 70.6714C149.054 70.6714 148.489 70.0227 148.489 68.612V54.59C148.489 54.2514 148.32 54.082 148.01 54.082H144.68C144.342 54.082 144.172 54.2516 144.172 54.59V69.1479C144.172 72.5899 146.063 74.6215 149.392 74.6215C150.154 74.6215 150.774 74.5366 151.254 74.4519ZM157.574 68.6683V63.5615H160.085C160.395 63.5615 160.593 63.3924 160.593 63.0824V60.3739C160.593 60.0634 160.395 59.8943 160.085 59.8943H157.546L157.207 56.5083C157.179 56.198 157.01 56.0571 156.699 56.0571H153.765C153.427 56.0571 153.257 56.2266 153.257 56.5367V69.2047C153.257 72.8158 155.457 74.5934 158.731 74.5934C159.408 74.5934 160.029 74.5366 160.508 74.4522C160.79 74.3959 160.903 74.1703 160.903 73.8881V71.1229C160.903 70.7845 160.734 70.6433 160.367 70.6998C160.057 70.7282 159.718 70.7561 159.464 70.7561C158.223 70.7561 157.574 70.0509 157.574 68.6685V68.6683ZM167.448 59.6401V54.59C167.448 54.2514 167.279 54.082 166.969 54.082H163.64C163.302 54.082 163.132 54.2516 163.132 54.59V73.7467C163.132 74.0851 163.302 74.2547 163.64 74.2547H166.969C167.28 74.2547 167.448 74.0851 167.448 73.7467V63.364C167.928 63.1665 168.69 62.9972 169.395 62.9972C171.06 62.9972 171.794 63.7876 171.794 65.7056V73.7464C171.794 74.0849 171.963 74.2544 172.301 74.2544H175.63C175.969 74.2544 176.138 74.0849 176.138 73.7464V65.7056C176.138 61.4736 173.796 59.1886 170.298 59.1886C169.113 59.1886 168.211 59.3577 167.448 59.6398V59.6401Z" fill="#C61531"/>
<path d="M186.527 53.5533C186.108 53.322 185.628 53.1895 185.114 53.1895C184.207 53.1895 183.396 53.6019 182.861 54.2506C182.321 53.6019 181.511 53.1895 180.602 53.1895C180.092 53.1895 179.611 53.322 179.19 53.5533C178.287 54.0534 177.676 55.0144 177.676 56.1195C177.676 56.4353 177.728 56.7381 177.821 57.0213C178.323 59.2812 182.86 62.1288 182.86 62.1288C182.86 62.1288 187.393 59.2812 187.897 57.0213C187.99 56.7381 188.042 56.4353 188.042 56.1195C188.042 55.0142 187.431 54.0551 186.527 53.5533Z" fill="#C61531"/>
<path d="M178.549 57.1829H180.175L181.142 56.0133L182.065 58.191L183.075 55.6504L184.02 58.433L185.097 57.1829H187.36" stroke="white" stroke-linejoin="round"/>
<defs>
<linearGradient id="paint0_linear_6108_29686" x1="-11.0734" y1="47.7229" x2="36.2712" y2="110.131" gradientUnits="userSpaceOnUse">
<stop stop-color="#F16137"/>
<stop offset="0.25098" stop-color="#F58534"/>
<stop offset="0.721569" stop-color="#FFCD28"/>
<stop offset="1" stop-color="#FAED21"/>
</linearGradient>
</defs>
</svg>
